Coordinates
version=1
nRows=29
nColumns=22
inDegrees=yes

Units are S.I. units (second, meters, Newtons, ...)
If the header above contains a line with 'inDegrees', this indicates whether rotational values are in degrees (yes) or radians (no).

endheader
time	pelvis_tilt	pelvis_list	pelvis_rotation	pelvis_tx	pelvis_ty	pelvis_tz	hip_flexion_r	hip_adduction_r	hip_rotation_r	knee_angle_r	ankle_angle_r	subtalar_angle_r	hip_flexion_l	hip_adduction_l	hip_rotation_l	knee_angle_l	ankle_angle_l	subtalar_angle_l	lumbar_extension	lumbar_bending	lumbar_rotation
      2.70000000	     -5.58620536	     -4.65271190	    -16.26196285	     -0.42351522	      0.96349443	      0.22176310	      5.83130475	     14.33264820	     -3.50770728	    -16.47073920	     12.24955842	     -4.73221528	     23.36563643	     -9.68798191	     17.42085863	    -32.95633589	     12.49696756	     -2.06700309	      0.25737404	      8.45145830	     -5.56416305
      2.71000000	     -5.70628166	     -4.46741888	    -17.02367638	     -0.41757113	      0.96291116	      0.22524395	      5.34186641	     14.30005701	     -2.79002123	    -16.31241842	     12.46932265	     -4.74176231	     23.89095774	     -9.33729192	     18.24158409	    -31.56320041	     11.89401605	     -1.82625645	      0.32428201	      8.32604721	     -5.40312022
      2.72000000	     -5.81155799	     -4.27899192	    -17.76818973	     -0.41159249	      0.96229039	      0.22871659	      4.86870993	     14.24929584	     -2.07756524	    -16.20279902	     12.70791856	     -4.75275308	     24.39433774	     -9.00247847	     18.97067446	    -30.17555846	     11.16299512	     -1.61792608	      0.37960346	      8.19601929	     -5.25723080
      2.73000000	     -5.90740242	     -4.08856661	    -18.49446861	     -0.40558130	      0.96162620	      0.23218855	      4.41985542	     14.18366907	     -1.37947637	    -16.14597789	     12.95091460	     -4.76349824	     24.88557711	     -8.68551898	     19.59336401	    -28.80015603	     10.30788550	     -1.44883270	      0.42808919	      8.06271156	     -5.12414167
      2.74000000	     -5.99206545	     -3.90020802	    -19.20718302	     -0.39952703	      0.96092119	      0.23566938	      3.98680602	     14.10724195	     -0.69437126	    -16.13576396	     13.20729888	     -4.76819002	     25.36312260	     -8.39179434	     20.08508163	    -27.44229229	      9.36653855	     -1.31389189	      0.46727353	      7.92988541	     -4.99960274
      2.75000000	     -6.06668451	     -3.71777789	    -19.90741798	     -0.39341887	      0.96017787	      0.23915706	      3.56744257	     14.02307360	     -0.02645884	    -16.16989684	     13.47633818	     -4.75963697	     25.82519360	     -8.12365974	     20.43504984	    -26.10179083	      8.38747424	     -1.21059445	      0.49708304	      7.80407214	     -4.87831709
      2.76000000	     -6.13707947	     -3.54239400	    -20.59696597	     -0.38726345	      0.95939145	      0.24266661	      3.16514983	     13.93565330	      0.61889049	    -16.24417913	     13.74660264	     -4.73716569	     26.27533987	     -7.88150956	     20.64842859	    -24.77927030	      7.42866618	     -1.12326783	      0.52248649	      7.68512135	     -4.76844988
      2.77000000	     -6.19843560	     -3.37672995	    -21.28110654	     -0.38104144	      0.95857510	      0.24619333	      2.76579979	     13.84465187	      1.24787293	    -16.34715643	     14.02775552	     -4.69036178	     26.70056039	     -7.66434204	     20.72561498	    -23.47166825	      6.56166519	     -1.04947968	      0.53852714	      7.57725142	     -4.65443378
      2.78000000	     -6.27488785	     -3.22171733	    -21.93491798	     -0.37473911	      0.95770492	      0.24972096	      2.37771526	     13.75916030	      1.83088862	    -16.44371762	     14.27630918	     -4.64595709	     27.13056831	     -7.46416526	     20.70889303	    -22.18403693	      5.82460938	     -0.95637474	      0.57571337	      7.48904511	     -4.57906767
      2.79000000	     -6.30636183	     -3.07952459	    -22.63561356	     -0.36840853	      0.95684734	      0.25332416	      1.97315740	     13.66123442	      2.44587406	    -16.61782227	     14.58353234	     -4.53124839	     27.46283219	     -7.29924448	     20.55970484	    -20.88448298	      5.36513315	     -0.86911172	      0.55094384	      7.39836557	     -4.44313342
      2.80000000	     -6.35150121	     -2.95112026	    -23.30259015	     -0.36197572	      0.95595324	      0.25692885	      1.56149230	     13.56938180	      3.01637201	    -16.75932042	     14.85416480	     -4.38764712	     27.77993530	     -7.14609912	     20.37275718	    -19.58990323	      5.11288615	     -0.72589552	      0.54751985	      7.33000603	     -4.34140806
      2.81000000	     -6.40539485	     -2.82474402	    -23.97193808	     -0.35550010	      0.95502122	      0.26056342	      1.17206322	     13.47478252	      3.58281072	    -16.92763650	     15.09402433	     -4.25692909	     28.06788253	     -7.00818258	     20.14680778	    -18.29463235	      5.07652911	     -0.53665249	      0.55240660	      7.26957218	     -4.25752889
      2.82000000	     -6.43971709	     -2.72448660	    -24.63398871	     -0.34891138	      0.95410615	      0.26425843	      0.73277705	     13.38292349	      4.12012891	    -17.06758800	     15.34301910	     -4.02874953	     28.26749747	     -6.89488602	     19.94797300	    -16.97670583	      5.26238618	     -0.20780983	      0.53509248	      7.22536170	     -4.15029852
      2.83000000	     -6.50165607	     -2.61768499	    -25.31656526	     -0.34231990	      0.95313385	      0.26801710	      0.34966203	     13.29338789	      4.68438252	    -17.25830234	     15.54408424	     -3.85787532	     28.44785894	     -6.80512754	     19.78349263	    -15.66009237	      5.54284092	      0.09583636	      0.54494208	      7.18728206	     -4.05474412
      2.84000000	     -6.55202423	     -2.53957673	    -25.99065961	     -0.33560975	      0.95218247	      0.27185046	     -0.07315717	     13.21259579	      5.21847481	    -17.42755273	     15.75740995	     -3.58710299	     28.53492519	     -6.74752145	     19.74095457	    -14.32524534	      5.90532885	      0.55409699	      0.54210762	      7.17001246	     -3.94099014
      2.85000000	     -6.63168206	     -2.46450823	    -26.70030971	     -0.32890354	      0.95119219	      0.27580500	     -0.44706981	     13.14851361	      5.80665274	    -17.64558620	     15.90907568	     -3.36483093	     28.59664624	     -6.73791076	     19.79122522	    -13.02315874	      6.24499860	      0.92682219	      0.56310977	      7.16618742	     -3.82087713
      2.86000000	     -6.72006108	     -2.41538244	    -27.41580841	     -0.32214322	      0.95019756	      0.27985835	     -0.81656226	     13.10836727	      6.40532310	    -17.88725592	     16.03526485	     -3.10741511	     28.60576072	     -6.77537764	     20.00012516	    -11.77258372	      6.54613498	      1.31495947	      0.58508194	      7.18901198	     -3.70597291
      2.87000000	     -6.82792167	     -2.38978578	    -28.14076321	     -0.31533464	      0.94918564	      0.28403200	     -1.17176335	     13.09601091	      7.01159508	    -18.15230467	     16.13955458	     -2.82286917	     28.59282585	     -6.86240780	     20.32746055	    -10.62823341	      6.79720314	      1.68007274	      0.61810507	      7.23818042	     -3.58622911
      2.88000000	     -6.94726375	     -2.38262460	    -28.87620662	     -0.30847020	      0.94816804	      0.28831609	     -1.50893027	     13.10475120	      7.64071314	    -18.46070211	     16.21428428	     -2.51712217	     28.57212251	     -6.98128070	     20.75075501	     -9.65496344	      7.00513679	      2.00556399	      0.65753036	      7.30831105	     -3.46887094
      2.89000000	     -7.08886971	     -2.38959273	    -29.61978783	     -0.30153323	      0.94714238	      0.29272265	     -1.82420778	     13.13656621	      8.28590972	    -18.79827072	     16.23727737	     -2.24542723	     28.56828254	     -7.12341293	     21.21758015	     -8.89574961	      7.16479995	      2.26109879	      0.71731799	      7.39912313	     -3.35954293
      2.90000000	     -7.21305940	     -2.40656658	    -30.36936947	     -0.29450398	      0.94615306	      0.29724439	     -2.15120782	     13.16529168	      8.94978239	    -19.17133863	     16.24064186	     -1.90503778	     28.56298757	     -7.25070894	     21.69404998	     -8.40862620	      7.32232196	      2.54969837	      0.76009676	      7.48327765	     -3.23809284
      2.91000000	     -7.34737299	     -2.42128784	    -31.11820223	     -0.28733575	      0.94517793	      0.30186443	     -2.46162186	     13.19134492	      9.61064079	    -19.57021399	     16.19240922	     -1.60619738	     28.57764303	     -7.35521047	     22.16117694	     -8.18389048	      7.44445318	      2.79969598	      0.82880523	      7.57161261	     -3.13140104
      2.92000000	     -7.45727049	     -2.43249843	    -31.86566388	     -0.28001545	      0.94426077	      0.30658159	     -2.78408685	     13.19310743	     10.26597448	    -20.00026809	     16.13500350	     -1.21911606	     28.57887414	     -7.41149491	     22.60414875	     -8.22757301	      7.53678959	      3.10680610	      0.88946585	      7.64009560	     -3.02211913
      2.93000000	     -7.56264962	     -2.43521830	    -32.60495145	     -0.27254175	      0.94338461	      0.31139683	     -3.08744291	     13.18243288	     10.90741026	    -20.47575993	     16.03307491	     -0.89912046	     28.56611392	     -7.42657782	     23.05108608	     -8.48801403	      7.52358016	      3.34243349	      0.96814995	      7.69631657	     -2.94477389
      2.94000000	     -7.62346264	     -2.39711509	    -33.31644381	     -0.26484394	      0.94257764	      0.31628173	     -3.38213204	     13.09763563	     11.49105949	    -21.00459191	     15.96760142	     -0.30751318	     28.49748842	     -7.34725208	     23.54475364	     -8.91512585	      7.45258072	      3.69122761	      1.05701206	      7.68693087	     -2.90273090
      2.95000000	     -7.68351194	     -2.34297275	    -34.03256468	     -0.25700400	      0.94183331	      0.32127835	     -3.64361978	     13.00103456	     12.07336884	    -21.58138050	     15.79388527	      0.06934511	     28.40762334	     -7.23169800	     24.06025787	     -9.49910647	      7.23427387	      3.83940891	      1.17399497	      7.66151053	     -2.85065091
      2.96000000	     -7.71061067	     -2.23137602	    -34.71076549	     -0.24897831	      0.94117221	      0.32632309	     -3.84909808	     12.83104479	     12.58285417	    -22.24193586	     15.62738922	      0.64372413	     28.26561655	     -7.02383471	     24.66890551	    -10.14965688	      6.80453982	      3.97152793	      1.32332321	      7.56183264	     -2.84649385
      2.97000000	     -7.71169340	     -2.09406780	    -35.34176703	     -0.24079844	      0.94062867	      0.33141679	     -4.00542385	     12.62774238	     13.00674175	    -22.97976503	     15.38582922	      1.22232995	     28.09744696	     -6.74534345	     25.32743229	    -10.88925168	      6.17198149	      3.99879596	      1.48912265	      7.41917594	     -2.91122031
      2.98000000	     -7.68199062	     -1.89015358	    -35.95240779	     -0.23249260	      0.94020177	      0.33659815	     -4.08096508	     12.35812387	     13.37628918	    -23.81775806	     15.07910514	      1.70616853	     27.91350176	     -6.38655985	     25.99403856	    -11.67478715	      5.40432895	      3.98611896	      1.69322459	      7.19132964	     -2.96990194
